<?xml version="1.0" standalone="no"?>
<!DOCTYPE svg PUBLIC "-//W3C//DTD SVG 20010904//EN"
 "http://www.w3.org/TR/2001/REC-SVG-20010904/DTD/svg10.dtd">
<svg version="1.0" xmlns="http://www.w3.org/2000/svg"
 width="1439.000000pt" height="1119.000000pt" viewBox="0 0 1439.000000 1119.000000"
 preserveAspectRatio="xMidYMid meet">
<metadata>
Created by potrace 1.11, written by Peter Selinger 2001-2013
</metadata>
<g transform="translate(0.000000,1119.000000) scale(0.100000,-0.100000)"
fill="#000000" stroke="none">
<path d="M0 6591 c0 -3671 3 -4600 12 -4604 10 -3 10 -7 0 -19 -9 -12 -12 -72
-10 -249 l3 -234 28 3 c15 1 27 -2 27 -8 0 -5 -8 -10 -19 -10 -10 0 -23 -6
-30 -13 -7 -10 -11 -227 -11 -735 l0 -722 7195 0 7195 0 0 1505 c0 1164 -3
1505 -12 1505 -9 0 -9 3 0 12 9 9 12 932 12 4090 l0 4078 -7195 0 -7195 0 0
-4599z m13005 -2851 c1 -32 -3 -40 -17 -40 -13 0 -18 8 -20 33 l-1 32 -4 -32
c-6 -44 -33 -53 -34 -10 l-2 32 -6 -30 c-4 -21 -12 -30 -26 -30 -14 0 -22 9
-26 30 l-6 30 -3 -35 -3 -35 -7 35 -7 35 -2 -32 c-1 -34 0 -34 -71 -38 -27 -2
-30 1 -31 29 -1 30 -1 30 -9 6 -8 -24 -8 -24 -9 7 -1 31 0 32 52 37 95 11 121
13 177 14 l55 2 0 -40z m-10118 -587 c10 -16 25 -33 34 -40 11 -8 16 -28 16
-65 0 -31 -2 -39 -4 -20 -2 18 -8 30 -13 27 -5 -3 -18 0 -28 6 -30 19 -52 4
-52 -33 0 -22 3 -29 9 -20 5 8 17 12 27 10 11 -2 24 3 31 12 10 13 12 10 13
-17 0 -23 -5 -33 -15 -33 -8 0 -15 4 -15 9 0 5 -15 5 -36 1 -31 -7 -36 -5 -43
13 -8 20 -8 20 -14 -2 -4 -18 -11 -22 -34 -19 -22 2 -28 8 -29 28 -1 42 -4 50
-15 50 -7 0 -10 -14 -7 -35 2 -19 0 -35 -4 -35 -4 0 -8 17 -8 39 0 22 -6 44
-15 51 -17 14 -3 50 20 50 8 0 15 6 15 13 0 26 25 37 87 37 57 0 64 -2 80 -27z
m4172 -114 c-8 -5 -29 -9 -47 -9 -20 0 -35 -6 -39 -15 -9 -25 5 -30 28 -10 15
14 22 16 28 7 5 -9 12 -9 27 3 25 19 34 19 34 -2 0 -14 2 -15 9 -5 4 8 12 14
17 15 5 1 8 10 7 20 -2 9 2 17 7 17 9 0 14 -22 11 -42 0 -5 4 -8 9 -8 6 0 10
5 10 11 0 5 5 7 10 4 6 -3 10 -1 10 4 0 6 5 11 10 11 6 0 9 -17 9 -37 -1 -21
-3 -31 -6 -21 -3 13 -10 15 -33 8 -16 -4 -31 -6 -34 -3 -3 3 -33 0 -68 -6 -35
-7 -83 -13 -108 -15 -25 -2 -71 -7 -102 -11 l-58 -8 0 27 c0 24 2 25 20 14 15
-10 22 -10 32 0 9 9 8 12 -6 12 -11 0 -16 6 -14 17 4 23 28 29 28 6 0 -28 15
-44 33 -37 9 3 17 14 17 24 0 11 5 22 11 25 6 4 10 1 8 -6 -1 -8 -1 -23 0 -34
1 -15 3 -17 10 -7 4 8 12 13 17 13 5 -1 10 10 12 23 3 25 8 27 92 40 20 2 26
-14 9 -25z m-145 -535 c3 -8 15 -14 28 -14 16 0 19 -3 11 -11 -9 -9 -8 -15 2
-25 17 -17 26 -18 24 -1 -4 32 1 37 21 20 19 -16 19 -18 3 -25 -10 -3 -12 -7
-5 -7 7 -1 10 -5 7 -11 -3 -5 -1 -10 4 -10 6 0 11 -9 11 -20 0 -27 -28 -25
-35 3 -6 21 -10 22 -105 20 -77 -2 -100 1 -100 11 0 25 37 46 83 48 50 2 65
17 20 19 -16 1 -34 1 -40 0 -7 -1 -13 2 -13 7 0 15 78 11 84 -4z m-5379 -104
c4 -22 11 -40 16 -40 13 0 11 24 -3 39 -11 11 -10 13 4 8 9 -3 19 -1 22 6 2 7
5 -3 5 -20 1 -28 5 -33 26 -33 20 0 25 5 25 25 0 14 5 25 10 25 6 0 9 -3 9 -7
-6 -38 1 -43 62 -43 l61 0 -6 28 c-4 23 -3 23 10 -7 21 -48 15 -67 -21 -63
-16 2 -35 8 -42 14 -9 7 -13 7 -13 -1 0 -8 -36 -10 -120 -9 -118 3 -120 3
-120 26 0 13 3 21 8 18 4 -2 6 13 4 35 -4 38 -3 39 26 39 27 0 31 -4 37 -40z
m8604 -215 c11 -6 10 -9 0 -17 -11 -7 -11 -11 -1 -15 6 -2 12 -12 12 -21 0
-15 -2 -15 -10 -2 -6 10 -10 11 -10 3 0 -7 -7 -13 -16 -13 -8 0 -22 -7 -31
-15 -11 -12 -26 -14 -59 -9 -37 5 -44 4 -44 -10 0 -24 -17 -19 -25 7 -7 21 -7
58 1 66 2 2 15 4 29 4 14 0 25 3 25 8 0 5 -14 9 -31 9 -16 0 -28 4 -25 8 6 10
169 8 185 -3z m-8945 -526 c-5 -8 3 -10 25 -7 18 3 34 1 37 -4 3 -4 16 -5 29
-2 13 3 32 1 44 -5 16 -9 19 -16 11 -35 -5 -13 -7 -26 -4 -29 6 -5 -55 1 -64
7 -11 7 -39 -18 -45 -39 -4 -19 -5 -19 -6 1 -1 19 -36 44 -63 44 -6 0 -21 11
-33 24 l-22 24 46 15 c25 8 47 16 49 16 2 1 0 -4 -4 -10z"/>
</g>
</svg>
